<svg viewBox="0 0 122 35" width="7.625rem" xmlns="http://www.w3.org/2000/svg"><g fill="none" fill-rule="evenodd"><g fill-rule="nonzero"><path fill="#2d2d4d" d="M15.126 33.98V19.46h15.33v-4.138h-15.33V4.94h17.157V.803H9.836V33.98zm26.402-5.707c-.03-.384-.046-.77-.046-1.159V.848h-5.304v27.236c0 .599 0 1.13.045 1.614.101 1.637.581 2.759 1.44 3.365 1.018.65 2.211.97 3.418.917.606 0 1.197 0 1.78-.076.584-.076 1.137-.106 1.683-.167v-3.705c-.76.133-1.543.05-2.258-.243a1.78 1.78 0 0 1-.758-1.516zm26.667-1.5V15.906c0-.63-.053-1.205-.12-1.75a8.601 8.601 0 0 0-.759-2.933 6.123 6.123 0 0 0-1.758-2.274 8.086 8.086 0 0 0-2.902-1.447 15.528 15.528 0 0 0-4.206-.5c-1.36-.014-2.715.18-4.016.576a9.427 9.427 0 0 0-3.221 1.705 8.23 8.23 0 0 0-2.168 2.743 9.745 9.745 0 0 0-.932 3.72h5.305a6.01 6.01 0 0 1 1.447-3.652 4.638 4.638 0 0 1 3.479-1.152 4.76 4.76 0 0 1 3.342.985 3.698 3.698 0 0 1 1.129 2.531c.062.46.095.923.098 1.387v2.024h-1.636c-4.87 0-8.453.757-10.746 2.273a7.896 7.896 0 0 0-2.797 9.586 6.623 6.623 0 0 0 1.781 2.274 7.783 7.783 0 0 0 2.615 1.417c1.027.323 2.098.484 3.175.477a16.08 16.08 0 0 0 3.44-.356 8.116 8.116 0 0 0 2.91-1.28l1.296-2.736.478 4.418h5.244c-.197-1.448-.318-3.365-.387-4.32a39.613 39.613 0 0 1-.09-2.849zm-5.304-3.077c0 2.087-.53 3.673-1.592 4.76a5.426 5.426 0 0 1-4.084 1.636 5.305 5.305 0 0 1-3.312-.962 3.562 3.562 0 0 1-1.228-2.986 4.085 4.085 0 0 1 2.79-4.062c1.853-.753 4.339-1.005 7.456-.758l-.03 2.372zm16.739-13.08h5.002V6.911h-5.001V.803h-5.305V6.91H70.72v3.705h3.607v16.998c0 .546 0 1.046.046 1.516a5.07 5.07 0 0 0 1.576 3.698c.924.773 2.402 1.16 4.433 1.16a28.04 28.04 0 0 0 3.895-.289v-3.66c-1.735.167-2.91.068-3.531-.288-.622-.356-.985-1.152-1.084-2.402 0-.356-.053-.682-.053-.985V10.616h.023z"></path><path fill="#FF5A5A" d="M1 9.093h5.29v16.589H1zM88.482.803H121V14.3H88.482z"></path><path d="M93.15 8.95a1.22 1.22 0 0 1 1.296 1.295 1.319 1.319 0 0 1-2.228.925 1.394 1.394 0 0 1 0-1.865 1.29 1.29 0 0 1 .932-.356zm14.982-3.494c.03.205.049.413.053.621v5.229h-2.228V6.865c0-.197 0-.394-.038-.583a1.516 1.516 0 0 0-.363-.872 1.076 1.076 0 0 0-.826-.31c-.849 0-1.273.757-1.273 2.273v3.933h-2.228V6.282a1.516 1.516 0 0 0-.448-.872 1.114 1.114 0 0 0-.84-.31c-.842 0-1.259.757-1.259 2.273v3.933h-2.235V3.728h2.235V4.91l.569-.94c.231-.154.487-.267.758-.333a3.57 3.57 0 0 1 .909-.106 2.637 2.637 0 0 1 1.516.409c.372.261.657.628.818 1.053l.758-1.023c.218-.152.462-.265.72-.333.295-.074.598-.11.902-.106.334-.004.667.047.985.151.273.09.53.226.757.402.406.338.675.812.758 1.334v.038zm9.503 5.88h-2.599l-1.372-2.47-1.447 2.47h-2.554l2.652-3.834-2.553-3.736h2.599l1.303 2.372 1.35-2.372h2.56l-2.599 3.789z" fill="#FFF"></path></g><path d="M.5.395h121v34H.5z"></path></g></svg>